<svg width="48" height="48" viewBox="0 0 48 48" fill="none" xmlns="http://www.w3.org/2000/svg">
<circle cx="24" cy="24" r="24" fill="#222222"/>
<path d="M35.2969 29.7422H12.7031C12.3148 29.7422 12 30.057 12 30.4453C12 32.128 13.3641 33.4922 15.0469 33.4922H32.9531C34.6358 33.4922 36 32.1281 36 30.4453C36 30.057 35.6852 29.7422 35.2969 29.7422Z" fill="#F8BD49"/>
<path d="M25.875 16.7572V16.3828C25.875 15.3473 25.0355 14.5078 24 14.5078C22.9645 14.5078 22.125 15.3473 22.125 16.3828V16.7572C22.7401 16.6647 23.3664 16.6172 24 16.6172C24.6336 16.6172 25.2599 16.6647 25.875 16.7572Z" fill="#F8BD49"/>
<path d="M31.7892 21.2498C29.7086 19.1693 26.9424 18.0234 24 18.0234C21.0576 18.0234 18.2913 19.1693 16.2108 21.2498C14.2968 23.1638 13.1747 25.6582 13.0071 28.3359H34.9928C34.8252 25.6582 33.7031 23.1638 31.7892 21.2498Z" fill="#F8BD49"/>
</svg>
