<svg width="24" height="24" viewBox="0 0 24 24" fill="none" xmlns="http://www.w3.org/2000/svg">
<rect width="24" height="24" rx="6" fill="#222222" fill-opacity="0.71"/>
<path fill-rule="evenodd" clip-rule="evenodd" d="M16.4277 7.6481C16.6935 7.91378 16.9009 8.23203 17.0366 8.58248C17.193 8.99824 17.2765 9.43791 17.2834 9.8821C17.3162 10.4431 17.3162 10.6248 17.3162 12.0568V12.0569C17.3162 13.489 17.3086 13.6678 17.2834 14.2318C17.2746 14.6702 17.1919 15.1029 17.0377 15.5132C16.9018 15.8636 16.6944 16.1818 16.4286 16.4476C16.1629 16.7134 15.8447 16.9208 15.4943 17.0567C15.084 17.2103 14.6508 17.2934 14.2128 17.3023C13.653 17.3345 13.4695 17.3345 12.038 17.3345C10.6065 17.3345 10.4277 17.3269 9.86315 17.3023C9.42429 17.2879 8.99112 17.1987 8.58228 17.0385C8.23177 16.9028 7.91341 16.6956 7.64754 16.4299C7.38167 16.1642 7.17414 15.846 7.03821 15.4956C6.88404 15.0847 6.80139 14.6521 6.79259 14.2136C6.75977 13.6526 6.75977 13.4703 6.75977 12.0388C6.75977 10.6066 6.76739 10.4279 6.79259 9.86393C6.80116 9.42593 6.88422 8.99259 7.03821 8.58248C7.17376 8.23194 7.38109 7.91361 7.64689 7.6479C7.9127 7.3822 8.23111 7.175 8.5817 7.03958C8.99131 6.88517 9.4243 6.80191 9.86197 6.79337C10.4218 6.76172 10.6053 6.76172 12.0368 6.76172C13.4683 6.76172 13.6471 6.76875 14.2116 6.79337C14.6496 6.80237 15.0829 6.88562 15.4931 7.03958C15.8436 7.17515 16.1619 7.38242 16.4277 7.6481ZM16.1403 15.1597C16.2571 14.8427 16.3188 14.508 16.3226 14.1702V14.1708H16.329C16.3542 13.6104 16.3542 13.4568 16.3542 12.0288C16.3542 10.6002 16.3478 10.4437 16.3226 9.8862C16.3171 9.55216 16.2555 9.22141 16.1403 8.90782C16.0522 8.67983 15.9174 8.47277 15.7445 8.29994C15.5717 8.12711 15.3647 7.99233 15.1367 7.90424C14.8233 7.78762 14.4921 7.72595 14.1577 7.72193C13.5908 7.68968 13.4443 7.68968 12.0157 7.68968C10.5871 7.68968 10.4306 7.69672 9.87311 7.72193C9.53899 7.72659 9.20811 7.78825 8.89473 7.90424C8.43221 8.08127 8.06584 8.4453 7.88704 8.90782C7.77018 9.22462 7.70852 9.55911 7.70473 9.89675C7.67366 10.4648 7.67366 10.6108 7.67366 12.0393C7.67366 13.4673 7.67952 13.6244 7.70473 14.1813C7.71019 14.5154 7.77182 14.8461 7.88704 15.1597C7.97546 15.3881 8.11084 15.5954 8.28443 15.7682C8.45801 15.941 8.66593 16.0754 8.89473 16.1627C9.20796 16.2793 9.53893 16.3409 9.87311 16.345C10.4406 16.3773 10.5865 16.3773 12.0157 16.3773C13.4437 16.3773 13.6008 16.3708 14.1577 16.345C14.492 16.3407 14.8232 16.279 15.1367 16.1627C15.3647 16.0748 15.5718 15.9402 15.7446 15.7674C15.9174 15.5947 16.0522 15.3877 16.1403 15.1597ZM14.8521 9.8569C15.2011 9.8569 15.484 9.57398 15.484 9.22497C15.484 8.87597 15.2011 8.59304 14.8521 8.59304C14.5031 8.59304 14.2202 8.87597 14.2202 9.22497C14.2202 9.57398 14.5031 9.8569 14.8521 9.8569ZM12.0339 9.32466C11.315 9.32466 10.6255 9.61024 10.1172 10.1186C9.60886 10.6269 9.32328 11.3164 9.32328 12.0353C9.32328 12.7542 9.60886 13.4436 10.1172 13.952C10.6255 14.4603 11.315 14.7459 12.0339 14.7459C12.7528 14.7459 13.4423 14.4603 13.9506 13.952C14.4589 13.4436 14.7445 12.7542 14.7445 12.0353C14.7445 11.3164 14.4589 10.6269 13.9506 10.1186C13.4423 9.61024 12.7528 9.32466 12.0339 9.32466ZM12.0339 13.7957C11.5669 13.7957 11.119 13.6101 10.7887 13.2799C10.4585 12.9496 10.2729 12.5017 10.2729 12.0347C10.2729 11.5677 10.4585 11.1197 10.7887 10.7895C11.119 10.4593 11.5669 10.2737 12.0339 10.2737C12.5009 10.2737 12.9488 10.4593 13.2791 10.7895C13.6093 11.1197 13.7949 11.5677 13.7949 12.0347C13.7949 12.5017 13.6093 12.9496 13.2791 13.2799C12.9488 13.6101 12.5009 13.7957 12.0339 13.7957Z" fill="white"/>
</svg>
