<svg width="48" height="48" viewBox="0 0 48 48" fill="none" xmlns="http://www.w3.org/2000/svg">
<circle cx="24" cy="24" r="24" fill="#222222"/>
<g clip-path="url(#clip0_119_209)">
<path d="M26.6736 28.9219L22.2037 31.9019C22.0074 32.0324 21.8906 32.2514 21.8906 32.4869V36H33.1406V32.4375C33.1406 30.4991 31.5634 28.9219 29.625 28.9219H26.6736ZM24.7031 33.8438H23.2969V32.4375H24.7031V33.8438Z" fill="#F8BD49"/>
<path d="M20.4844 32.487C20.4844 31.7804 20.8352 31.124 21.4237 30.7319L24.1385 28.9219H18.375C16.4366 28.9219 14.8594 30.4991 14.8594 32.4375V36H20.4844V32.487Z" fill="#F8BD49"/>
<path d="M19.0781 18.14V19.0312H28.9219V18.14C29.809 17.4787 30.3281 16.5223 30.3281 15.5156C30.3281 13.5772 28.4357 12 26.1094 12C24.7858 12 23.2969 12.8086 23.2969 14.1094H21.8906C21.8906 13.3544 22.1838 12.6584 22.6718 12.0848C22.4145 12.0446 22.1577 12 21.8906 12C19.5643 12 17.6719 13.5772 17.6719 15.5156C17.6719 16.5223 18.191 17.4787 19.0781 18.14Z" fill="#F8BD49"/>
<path d="M28.9219 20.4375H19.0781V22.5938C19.0781 25.3074 21.2864 27.5156 24 27.5156C26.7136 27.5156 28.9219 25.3074 28.9219 22.5938V20.4375Z" fill="#F8BD49"/>
</g>
<defs>
<clipPath id="clip0_119_209">
<rect width="24" height="24" fill="white" transform="translate(12 12)"/>
</clipPath>
</defs>
</svg>
