<svg width="48" height="48" viewBox="0 0 48 48" fill="none" xmlns="http://www.w3.org/2000/svg">
<circle cx="24" cy="24" r="24" fill="#222222"/>
<path d="M32.6824 19.6035C32.8016 19.4891 32.8061 19.299 32.6917 19.1794L32.5897 19.0721C32.5342 19.0136 32.4589 18.9806 32.379 18.9788C32.2969 18.9799 32.2226 19.0065 32.1645 19.062C32.148 19.0778 32.1349 19.0931 32.1236 19.1104L31.1047 20.6314C31.2142 20.6831 31.3222 20.7394 31.4276 20.8016L32.6824 19.6035Z" fill="#F8BD49"/>
<path d="M13.2397 29.3369C13.8131 32.4817 16.5675 34.8749 19.875 34.8749H28.125C31.4325 34.8749 34.1869 32.4817 34.7602 29.3369C32.9261 30.5144 28.4437 31.1249 24 31.1249C19.5562 31.1249 15.0739 30.5144 13.2397 29.3369ZM27.75 33.3749H28.125C30.0731 33.3749 31.8521 32.3017 32.7679 30.5744L33.4309 30.9258C32.3846 32.899 30.3517 34.1249 28.125 34.1249H27.75V33.3749ZM26.25 33.3749H27V34.1249H26.25V33.3749Z" fill="#F8BD49"/>
<path d="M27.8201 18.108L27.2325 14.2894C27.129 13.6147 26.5578 13.125 25.875 13.125C25.1921 13.125 24.621 13.6147 24.5175 14.2894L23.8972 18.3199L25.2663 19.3849L27.8201 18.108ZM26.25 14.25H27V15H26.25V14.25ZM26.25 15.75H27V16.5H26.25V15.75ZM26.25 17.25H27V18H26.25V17.25ZM24.75 14.25H25.5V15H24.75V14.25ZM24.75 15.75H25.5V16.5H24.75V15.75ZM24.75 17.25H25.5V18H24.75V17.25Z" fill="#F8BD49"/>
<path d="M26.9418 21.9719C26.8177 22.0904 26.7014 22.2194 26.5972 22.3548L24.8598 24.6115C24.9595 24.9138 25.03 25.2284 25.0732 25.5516L25.3904 25.2344L28.3904 28.2344L27.8602 28.7646L25.1137 26.0181C25.1167 26.0958 25.1249 26.1719 25.1249 26.2499C25.1249 27.8759 24.3685 29.3845 23.1284 30.3666C23.4142 30.3715 23.7037 30.3749 23.9999 30.3749C24.9685 30.3749 25.8813 30.3471 26.7378 30.298L31.2029 27.1814C31.3435 27.0831 31.4774 26.9736 31.6012 26.8555L31.6649 26.7944C33.0115 25.5096 33.0614 23.3691 31.7767 22.0225C30.4915 20.6759 28.3507 20.626 27.0048 21.9111L26.9418 21.9719ZM29.3598 27.265L26.3598 24.265L26.89 23.7348L29.89 26.7348L29.3598 27.265ZM28.39 22.2348L31.39 25.2348L30.8598 25.765L27.8598 22.765L28.39 22.2348Z" fill="#F8BD49"/>
<path d="M32.3199 21.5052C32.4072 21.5967 32.4879 21.6923 32.5651 21.7895L34.4776 19.964C34.55 19.8946 34.5916 19.8016 34.5939 19.7015C34.5965 19.6013 34.5594 19.5061 34.4904 19.4337C34.3479 19.2848 34.1097 19.2781 33.9601 19.4213L33.2007 20.1462C33.2007 20.1462 33.2004 20.1466 33.2004 20.147L32.0476 21.2468C32.1406 21.3286 32.2325 21.4133 32.3199 21.5052Z" fill="#F8BD49"/>
<path d="M34.2348 21.2323L32.9805 22.4297C33.0375 22.538 33.0888 22.6483 33.1353 22.76L34.7006 21.8147C34.7197 21.803 34.737 21.7899 34.752 21.7757C34.8108 21.7194 34.8438 21.6448 34.8461 21.5645C34.848 21.4843 34.8183 21.4082 34.7628 21.35L34.6605 21.2428C34.605 21.1843 34.53 21.1513 34.4497 21.1494C34.3597 21.1524 34.293 21.1772 34.2348 21.2323Z" fill="#F8BD49"/>
<path d="M32.6277 26.8306C32.4942 27.0079 32.3491 27.1789 32.1833 27.3372L32.1196 27.3979C31.9684 27.5423 31.8042 27.6766 31.6324 27.7962L28.2061 30.1876C32.4166 29.7927 34.8751 28.8492 34.8751 28.1251C34.8751 27.8187 34.2784 27.3046 32.6277 26.8306Z" fill="#F8BD49"/>
<path d="M23.0343 18.5994C22.8761 19.0366 22.6537 19.7844 22.5532 20.7417L24.5227 19.757L23.0343 18.5994Z" fill="#F8BD49"/>
<path d="M24.524 23.8189L26.0033 21.8974C26.1308 21.7317 26.2722 21.5745 26.4237 21.4298L26.4871 21.369C27.2318 20.6584 28.1757 20.2853 29.1312 20.2384C29.0086 19.4599 28.8173 18.8622 28.6857 18.5142L22.5042 21.6049C22.5038 21.6409 22.5016 21.6747 22.5012 21.711C23.3581 22.2087 24.062 22.9395 24.524 23.8189Z" fill="#F8BD49"/>
<path d="M17.1608 29.8354C18.4373 30.0664 19.9912 30.243 21.7819 30.3248C23.3591 29.5853 24.375 27.996 24.375 26.25C24.375 23.8946 22.5551 21.9592 20.2477 21.7687C20.2312 19.5184 20.0659 17.25 18.375 17.25V18C19.3661 18 19.4839 19.9369 19.4981 21.7691C17.1926 21.9615 15.375 23.8961 15.375 26.25C15.375 27.6532 16.0429 28.9871 17.1608 29.8354ZM19.125 22.875C19.125 23.028 19.4171 23.25 19.875 23.25C20.3329 23.25 20.625 23.028 20.625 22.875H21.375C21.375 23.5058 20.7161 24 19.875 24C19.0339 24 18.375 23.5058 18.375 22.875H19.125ZM16.515 24.5831L17.1866 24.9172C17.0813 25.1287 17.0014 25.353 16.9492 25.5833L16.2176 25.4175C16.2832 25.1287 16.383 24.8479 16.515 24.5831ZM16.875 26.25C16.875 27.3975 17.5136 28.4276 18.5419 28.9384L18.2078 29.61C16.9234 28.9714 16.125 27.684 16.125 26.25H16.875Z" fill="#F8BD49"/>
<path d="M15.795 29.5427C15.2171 28.8242 14.8365 27.9629 14.6944 27.0479C13.5473 27.46 13.125 27.8766 13.125 28.1252C13.125 28.5745 14.0723 29.1077 15.795 29.5427Z" fill="#F8BD49"/>
<path d="M17.625 21H19.4621C19.2877 20.1454 18.5306 19.5 17.625 19.5H15.7878C15.9618 20.3546 16.7193 21 17.625 21Z" fill="#F8BD49"/>
</svg>
