<svg width="24" height="24" viewBox="0 0 24 24" fill="none" xmlns="http://www.w3.org/2000/svg">
<rect width="24" height="24" rx="6" fill="#222222" fill-opacity="0.71"/>
<path d="M16.1672 7.87823C15.071 6.77616 13.6113 6.17236 12.0579 6.17236C8.85718 6.17236 6.24856 8.78098 6.24856 11.9817C6.24856 13.0075 6.51821 14.0041 7.02235 14.8834L6.20166 17.8965L9.27925 17.0875C10.1292 17.5506 11.0848 17.7968 12.0579 17.7968C15.2586 17.7968 17.8672 15.1882 17.8672 11.9875C17.8672 10.4341 17.2634 8.97443 16.1672 7.87823ZM12.0579 16.812C11.1903 16.812 10.3403 16.5775 9.5958 16.1379L9.41994 16.0324L7.59097 16.5131L8.07752 14.731L7.96028 14.5493C7.47959 13.7813 7.22166 12.8903 7.22166 11.9817C7.22166 9.32029 9.39063 7.15133 12.052 7.15133C13.3417 7.15133 14.5551 7.65547 15.4637 8.56995C16.3782 9.48443 16.8765 10.6979 16.8765 11.9875C16.8882 14.6489 14.7192 16.812 12.0579 16.812ZM14.7075 13.201C14.561 13.1306 13.8458 12.7789 13.7168 12.7262C13.582 12.6793 13.4882 12.6558 13.3886 12.7965C13.2889 12.9431 13.0134 13.2713 12.9313 13.3651C12.8492 13.4648 12.7613 13.4765 12.6148 13.4003C12.4682 13.3299 11.9992 13.1717 11.4482 12.6793C11.0144 12.2924 10.7272 11.8175 10.6392 11.671C10.5572 11.5244 10.6275 11.4482 10.7037 11.372C10.7682 11.3075 10.8503 11.202 10.9206 11.1199C10.991 11.0379 11.0203 10.9734 11.0672 10.8796C11.1141 10.7799 11.0906 10.6979 11.0555 10.6275C11.0203 10.5572 10.7272 9.84202 10.6099 9.54892C10.4927 9.26754 10.3696 9.30271 10.2817 9.29685C10.1937 9.29685 10.0999 9.29685 10.0003 9.29685C9.90063 9.29685 9.74821 9.33202 9.61338 9.47857C9.48442 9.62512 9.10925 9.97685 9.10925 10.692C9.10925 11.4072 9.63097 12.0989 9.70132 12.1927C9.77166 12.2924 10.7272 13.7579 12.181 14.3851C12.5268 14.5375 12.7965 14.6255 13.0075 14.6899C13.3534 14.8013 13.6699 14.7837 13.922 14.7486C14.2034 14.7075 14.7837 14.3968 14.901 14.0568C15.0241 13.7168 15.0241 13.4296 14.983 13.3651C14.942 13.3006 14.8541 13.2713 14.7075 13.201Z" fill="white"/>
</svg>
